<?xml version="1.0" standalone="no"?>
<!DOCTYPE svg PUBLIC "-//W3C//DTD SVG 20010904//EN"
 "http://www.w3.org/TR/2001/REC-SVG-20010904/DTD/svg10.dtd">
<svg version="1.0" xmlns="http://www.w3.org/2000/svg"
 width="512.000000pt" height="512.000000pt" viewBox="0 0 512.000000 512.000000"
 preserveAspectRatio="xMidYMid meet">

<g transform="translate(0.000000,512.000000) scale(0.100000,-0.100000)"
fill="#04775a" stroke="none">
<path d="M2420 5114 c-169 -22 -330 -69 -461 -134 -373 -188 -636 -519 -728
-917 -19 -82 -40 -276 -41 -374 0 -33 -3 -37 -39 -48 -56 -16 -144 -100 -178
-169 l-28 -57 0 -260 c0 -256 0 -261 25 -310 36 -75 114 -148 185 -174 54 -20
74 -22 221 -19 l162 3 5 -79 c8 -121 55 -205 213 -384 l126 -144 -78 -184 -78
-184 -201 -119 -200 -119 -170 -37 c-232 -50 -326 -94 -440 -209 -88 -88 -150
-191 -180 -301 -21 -78 -31 -310 -16 -390 30 -161 143 -287 300 -336 490 -152
1700 -213 2651 -134 312 27 669 84 831 134 157 49 270 175 300 336 15 80 5
312 -16 390 -30 110 -92 213 -180 301 -114 114 -207 159 -440 210 l-170 37
-201 120 -201 120 -78 184 -78 184 26 26 c25 25 27 26 83 15 157 -32 305 8
421 112 101 91 146 194 159 359 l7 95 42 17 c62 23 126 84 166 157 l34 63 0
260 0 260 -28 57 c-34 69 -122 153 -178 169 -36 11 -39 15 -39 48 -1 107 -23
297 -45 389 -121 504 -535 905 -1043 1012 -95 20 -342 34 -422 24z m375 -189
c555 -116 955 -599 955 -1151 l0 -104 -47 0 c-27 0 -64 -3 -84 -6 l-36 -6 -6
138 c-6 171 -28 258 -102 409 -135 277 -380 473 -682 547 -115 28 -325 30
-425 5 -346 -86 -629 -347 -763 -703 -34 -90 -65 -247 -65 -329 l0 -68 -37 7
c-21 3 -59 6 -85 6 l-48 0 0 104 c0 470 297 907 741 1087 208 85 469 109 684
64z m-25 -344 c378 -99 640 -436 640 -821 l0 -92 -87 7 c-236 18 -421 63 -580
140 -122 60 -218 138 -270 221 -16 25 -40 48 -56 54 -38 13 -188 -3 -287 -30
-101 -28 -261 -108 -338 -170 -34 -27 -64 -50 -66 -50 -7 0 33 139 56 195 84
200 264 398 447 490 170 85 356 104 541 56z m-395 -703 c37 -51 151 -143 236
-190 176 -99 420 -162 707 -183 l93 -7 -3 -482 -3 -481 -24 -45 c-13 -25 -44
-69 -70 -99 -25 -29 -53 -62 -62 -73 -15 -19 -17 -19 -135 12 l-120 32 4 35
c6 48 -24 119 -62 148 -40 30 -295 96 -378 97 -118 2 -221 -83 -247 -202 -22
-100 28 -215 114 -266 64 -37 312 -97 382 -91 59 4 113 39 132 85 l12 29 75
-20 c40 -11 74 -23 74 -26 0 -3 -41 -50 -90 -103 -72 -77 -105 -104 -158 -130
l-67 -33 -225 0 -225 0 -65 32 c-40 20 -87 55 -122 90 -119 122 -381 430 -406
478 l-27 50 -3 515 -2 515 45 55 c109 134 269 233 448 280 114 30 137 27 172
-22z m-890 -388 c51 -19 56 -54 53 -350 l-3 -268 -25 -27 c-25 -26 -25 -26
-160 -23 -123 3 -138 5 -168 26 -65 47 -72 76 -72 307 0 225 5 248 57 298 17
15 43 32 59 37 41 12 227 12 259 0z m2405 0 c41 -11 94 -61 109 -103 7 -17 11
-113 11 -233 0 -229 -7 -259 -72 -306 -30 -21 -45 -23 -168 -26 -135 -3 -135
-3 -160 23 l-25 27 -3 268 c-3 291 2 330 50 350 31 12 214 12 258 0z m-208
-840 l70 0 -4 -92 c-2 -74 -8 -103 -28 -141 -46 -92 -134 -150 -245 -163 l-59
-7 46 59 c80 103 118 200 118 303 0 44 3 52 16 47 9 -3 47 -6 86 -6z m-982
-206 c63 -15 118 -29 121 -33 7 -6 -24 -147 -34 -157 -5 -5 -138 24 -235 52
-45 13 -56 20 -68 49 -10 26 -11 41 -3 62 22 61 52 65 219 27z m-645 -589 c60
-54 161 -109 241 -130 82 -21 446 -21 528 0 80 21 181 76 241 130 26 25 50 44
52 42 1 -2 28 -63 58 -136 l56 -132 -30 -38 c-110 -138 -300 -278 -465 -342
-136 -53 -173 -57 -263 -30 -99 29 -202 77 -292 135 -72 46 -209 171 -262 238
l-30 37 58 135 c31 75 58 136 58 136 1 0 24 -20 50 -45z m-156 -494 c87 -85
203 -166 319 -224 59 -29 117 -56 130 -59 22 -6 20 -10 -43 -88 -36 -44 -79
-106 -96 -135 -17 -30 -34 -57 -39 -60 -11 -7 -222 117 -307 180 -119 90 -223
186 -296 271 -36 44 -67 83 -69 88 -2 5 58 46 132 91 l135 82 39 -46 c22 -25
65 -70 95 -100z m1718 -15 c10 -9 -8 -34 -76 -111 -84 -96 -181 -183 -303
-274 -71 -53 -278 -172 -288 -166 -5 3 -22 30 -39 60 -17 29 -59 89 -94 133
l-64 78 104 49 c177 82 336 201 442 328 l53 65 127 -75 c69 -42 132 -81 138
-87z m-2231 -148 c85 -108 256 -273 364 -354 177 -132 358 -226 435 -226 71 0
104 27 155 123 37 71 135 195 183 232 l37 28 37 -28 c49 -38 147 -162 183
-233 34 -67 89 -120 128 -121 57 -2 80 4 178 50 235 112 451 290 674 559 l35
42 152 -34 c184 -42 254 -75 340 -161 109 -109 153 -233 153 -431 0 -125 -19
-184 -80 -245 -55 -55 -102 -72 -309 -114 -589 -119 -1698 -150 -2496 -69
-266 26 -550 74 -682 115 -86 27 -154 92 -177 170 -20 66 -21 230 -2 320 32
148 136 284 269 349 53 26 281 89 358 99 4 1 33 -32 65 -71z"/>
</g>
</svg>
