<?xml version="1.0" standalone="no"?>
<!DOCTYPE svg PUBLIC "-//W3C//DTD SVG 20010904//EN"
 "http://www.w3.org/TR/2001/REC-SVG-20010904/DTD/svg10.dtd">
<svg version="1.0" xmlns="http://www.w3.org/2000/svg"
 width="512.000000pt" height="512.000000pt" viewBox="0 0 512.000000 512.000000"
 preserveAspectRatio="xMidYMid meet">

<g transform="translate(0.000000,512.000000) scale(0.100000,-0.100000)"
fill="#fff" stroke="none">
<path d="M309 4381 c-152 -49 -269 -181 -299 -341 -14 -72 -14 -2888 0 -2960
31 -161 148 -293 302 -342 57 -17 147 -18 2248 -18 2101 0 2191 1 2248 18 154
49 271 181 302 342 14 72 14 2888 0 2960 -31 161 -148 293 -302 342 -57 17
-146 18 -2251 17 -2078 0 -2195 -1 -2248 -18z m4477 -132 c73 -27 136 -86 171
-158 l28 -56 0 -1475 0 -1475 -28 -56 c-35 -72 -98 -131 -171 -158 l-57 -21
-2169 0 -2169 0 -57 21 c-73 27 -136 86 -171 158 l-28 56 0 1475 0 1475 27 55
c36 73 91 125 164 155 l59 25 2172 0 2172 0 57 -21z"/>
<path d="M1232 3456 c-264 -99 -373 -395 -235 -642 85 -152 274 -241 451 -214
299 46 463 374 324 646 -96 189 -341 284 -540 210z m279 -138 c72 -33 134 -98
160 -168 30 -79 23 -186 -16 -259 -81 -148 -260 -206 -411 -131 -241 119 -228
460 22 566 76 32 165 29 245 -8z"/>
<path d="M2657 3322 c-34 -37 -14 -95 36 -107 12 -3 424 -4 915 -3 871 3 894
3 908 22 19 27 18 70 -4 89 -17 16 -96 17 -929 17 -869 0 -911 -1 -926 -18z"/>
<path d="M2690 2983 c-43 -16 -64 -66 -42 -99 22 -33 46 -34 937 -34 891 0
915 1 937 34 15 21 8 63 -13 82 -20 18 -51 19 -913 21 -490 1 -898 -1 -906 -4z"/>
<path d="M2690 2623 c-55 -20 -67 -78 -24 -112 27 -21 31 -21 915 -21 657 0
895 3 914 12 50 23 46 99 -6 117 -33 11 -1768 15 -1799 4z"/>
<path d="M1042 2480 c-205 -54 -363 -203 -430 -404 -18 -56 -25 -102 -29 -212
-3 -78 -3 -153 1 -167 15 -60 -34 -57 796 -57 830 0 781 -3 796 57 4 14 4 89
1 167 -4 115 -10 155 -30 214 -71 206 -225 349 -433 402 -68 18 -110 20 -338
19 -224 0 -271 -3 -334 -19z m672 -135 c78 -28 135 -65 192 -122 95 -94 134
-197 134 -350 l0 -103 -660 0 -660 0 0 103 c0 153 39 256 134 350 77 77 177
128 276 140 19 3 148 4 285 2 210 -2 258 -5 299 -20z"/>
<path d="M2666 2249 c-32 -25 -35 -68 -5 -95 20 -18 50 -19 924 -19 874 0 904
1 924 19 21 19 28 61 13 82 -22 33 -46 34 -940 34 -885 0 -889 0 -916 -21z"/>
<path d="M2675 1898 c-11 -6 -23 -16 -27 -22 -14 -20 -8 -63 10 -79 17 -16 96
-17 929 -17 869 0 911 1 926 18 18 19 22 59 9 78 -22 33 -46 34 -939 34 -643
-1 -894 -4 -908 -12z"/>
</g>
</svg>
