<?xml version="1.0" ?>
<!DOCTYPE svg  PUBLIC '-//W3C//DTD SVG 1.1//EN'  'http://www.w3.org/Graphics/SVG/1.1/DTD/svg11.dtd'>
<!-- Uploaded to: SVG Repo, www.svgrepo.com, Generator: SVG Repo Mixer Tools -->
<svg width="800px" height="800px" viewBox="0 0 512 512" enable-background="new 0 0 512 512" id="ideation_1_" version="1.1" xml:space="preserve" xmlns="http://www.w3.org/2000/svg" xmlns:xlink="http://www.w3.org/1999/xlink">
<g id="ideation">
<linearGradient gradientUnits="userSpaceOnUse" id="SVGID_1_" x1="150.3711" x2="380.322" y1="314.2012" y2="181.439">
<stop offset="0" style="stop-color:#F14D5C"/>
<stop offset="0.1309" style="stop-color:#F05454"/>
<stop offset="0.3346" style="stop-color:#ED663E"/>
<stop offset="0.3492" style="stop-color:#ED683C"/>
<stop offset="0.714" style="stop-color:#F3903F"/>
<stop offset="1" style="stop-color:#FDC70C"/>
</linearGradient>
<path d="M193.341,290.56c5.592,3.667,8.93,9.89,8.93,16.647v6.256c0,5.257,1.715,10.119,4.61,14.064   c-7.888,1.301-13.93,8.148-13.93,16.399v8.146c0,4.529,1.824,8.638,4.771,11.641c-2.946,3.004-4.771,7.112-4.771,11.642v8.146   c0,9.176,7.466,16.641,16.642,16.641h15.026c-0.161,1.067-0.191,2.159-0.051,3.25l2.31,17.932   c0.754,5.841,5.764,10.246,11.653,10.246h34.928c5.891,0,10.9-4.406,11.653-10.248l2.311-17.93c0.141-1.092,0.11-2.183-0.051-3.25   h15.026c9.176,0,16.641-7.465,16.641-16.641v-8.146c0-4.529-1.824-8.638-4.771-11.642c2.946-3.003,4.771-7.111,4.771-11.641v-8.146   c0-8.251-6.042-15.1-13.93-16.399c2.896-3.945,4.61-8.808,4.61-14.064v-6.256c0-6.758,3.336-12.98,8.924-16.644   c32.408-21.248,51.756-57.036,51.756-95.732c0-60.235-47.043-110.387-107.098-114.175c-33.755-2.127-66.616,10.884-90.13,35.703   c-23.521,24.827-34.744,58.345-30.793,91.961C146.33,241.938,164.905,271.913,193.341,290.56z M277.083,400.734   c0.195,0.223,0.51,0.697,0.422,1.379l-2.311,17.93c-0.112,0.869-0.858,1.525-1.735,1.525h-34.928c-0.877,0-1.623-0.656-1.735-1.525   l-2.31-17.93c-0.088-0.683,0.227-1.156,0.421-1.379c0.195-0.222,0.626-0.594,1.313-0.594h39.549   C276.458,400.141,276.888,400.513,277.083,400.734z M309.039,383.5c0,3.662-2.979,6.641-6.641,6.641H275.77h-39.549h-26.628   c-3.662,0-6.642-2.979-6.642-6.641v-8.146c0-3.662,2.979-6.642,6.642-6.642h92.806c3.662,0,6.641,2.979,6.641,6.642V383.5z    M309.039,343.927v8.146c0,3.662-2.979,6.641-6.641,6.641h-92.806c-3.662,0-6.642-2.979-6.642-6.641v-8.146   c0-3.662,2.979-6.642,6.642-6.642h16.501h59.803h16.502C306.061,337.285,309.039,340.265,309.039,343.927z M180.432,123.237   c19.947-21.056,47.241-32.806,75.714-32.806c2.17,0,4.347,0.068,6.527,0.206c54.8,3.456,97.727,49.224,97.727,104.194   c0,35.314-17.659,67.975-47.238,87.369c-8.417,5.519-13.441,14.866-13.441,25.007v6.256c0,7.621-6.201,13.822-13.823,13.822   h-59.803c-7.622,0-13.823-6.201-13.823-13.822v-6.256c0-10.14-5.026-19.489-13.445-25.01c-25.956-17.02-42.91-44.373-46.515-75.044   C148.706,176.491,158.956,145.905,180.432,123.237z" fill="url(#SVGID_1_)"/>
<path d="M234.751,110.064l-2.676-9.635c-3.107,0.863-6.204,1.888-9.204,3.047l3.604,9.328   C229.173,111.762,231.957,110.84,234.751,110.064z" fill="#F2893E"/>
<path d="M218.818,116.182l-4.461-8.95c-19.583,9.76-35.655,25.962-45.257,45.621l8.986,4.389   C186.728,139.547,201.193,124.966,218.818,116.182z" fill="#EE713D"/>
</g>
</svg>